<?xml version="1.0" standalone="no"?>
<!DOCTYPE svg PUBLIC "-//W3C//DTD SVG 20010904//EN"
 "http://www.w3.org/TR/2001/REC-SVG-20010904/DTD/svg10.dtd">
<svg version="1.0" xmlns="http://www.w3.org/2000/svg"
 width="512.000000pt" height="512.000000pt" viewBox="0 0 512.000000 512.000000"
 preserveAspectRatio="xMidYMid meet">
<metadata>
Created by potrace 1.14, written by Peter Selinger 2001-2017
</metadata>
<g transform="translate(0.000000,512.000000) scale(0.100000,-0.100000)"
fill="#000000" stroke="none">
<path d="M2379 4926 c-2 -2 -33 -7 -69 -10 -620 -64 -1206 -384 -1596 -870
-102 -128 -255 -367 -290 -456 -3 -8 -15 -34 -25 -58 -56 -124 -129 -338 -143
-419 -3 -13 -7 -31 -10 -41 -8 -26 -19 -89 -42 -247 -3 -22 -7 -128 -9 -235
-2 -149 1 -228 16 -333 10 -76 20 -146 23 -155 3 -9 7 -28 10 -42 26 -151 128
-431 219 -605 56 -106 204 -335 237 -365 3 -3 30 -34 60 -70 230 -273 557
-510 896 -649 109 -45 319 -112 392 -126 26 -5 51 -9 102 -20 185 -37 596 -42
765 -9 11 2 36 7 55 10 75 13 241 54 307 76 37 12 70 23 73 23 3 1 14 5 25 10
11 4 58 23 105 42 178 72 402 205 566 337 90 72 275 252 316 308 15 20 33 42
40 50 90 93 263 379 333 548 14 36 32 79 40 95 39 86 117 386 130 501 3 28 8
61 11 75 14 58 13 427 -1 539 -108 855 -633 1563 -1413 1904 -56 25 -102 42
-102 39 0 -3 -6 -1 -13 5 -32 27 -369 114 -492 128 -32 3 -68 8 -79 11 -24 6
-431 14 -437 9z"/>
</g>
</svg>
